<?xml version="1.0" encoding="UTF-8"?>
<svg xmlns="http://www.w3.org/2000/svg" xmlns:xlink="http://www.w3.org/1999/xlink" width="32px" height="32px" viewBox="0 0 32 32" version="1.1">
<g id="surface1">
<path style=" stroke:none;fill-rule:nonzero;fill:rgb(60%,66.666667%,70.980392%);fill-opacity:1;" d="M 31.15625 22.738281 C 31.15625 27.386719 24.371094 31.15625 16 31.15625 C 7.628906 31.15625 0.84375 27.386719 0.84375 22.738281 C 0.84375 18.085938 7.628906 14.316406 16 14.316406 C 24.371094 14.316406 31.15625 18.085938 31.15625 22.738281 "/>
<path style=" stroke:none;fill-rule:nonzero;fill:rgb(80%,83.921569%,86.666667%);fill-opacity:1;" d="M 31.15625 21.050781 C 31.15625 25.703125 24.371094 29.472656 16 29.472656 C 7.628906 29.472656 0.84375 25.703125 0.84375 21.050781 C 0.84375 16.402344 7.628906 12.632812 16 12.632812 C 24.371094 12.632812 31.15625 16.402344 31.15625 21.050781 "/>
<path style=" stroke:none;fill-rule:nonzero;fill:rgb(96.078431%,97.254902%,98.039216%);fill-opacity:1;" d="M 16 26.949219 C 3.402344 26.949219 1.683594 14.316406 1.683594 10.949219 L 30.316406 10.949219 C 30.316406 12.632812 28.667969 26.949219 16 26.949219 "/>
<path style=" stroke:none;fill-rule:nonzero;fill:rgb(80%,83.921569%,86.666667%);fill-opacity:1;" d="M 27.691406 6.695312 C 26.546875 5.90625 25.078125 5.269531 23.378906 4.800781 C 24.957031 4.316406 27.210938 4.542969 27.691406 6.695312 M 29.796875 8.964844 C 31.855469 0.441406 21.5625 2.472656 19.519531 4.082031 C 18.390625 3.957031 17.21875 3.882812 16 3.882812 C 8.09375 3.882812 1.683594 6.601562 1.683594 10.996094 C 1.683594 15.386719 8.09375 18.949219 16 18.949219 C 23.90625 18.949219 30.316406 15.386719 30.316406 10.996094 C 30.316406 10.269531 30.125 9.59375 29.796875 8.964844 "/>
<path style=" stroke:none;fill-rule:nonzero;fill:rgb(54.117647%,29.411765%,21.960784%);fill-opacity:1;" d="M 28.632812 11.789062 C 28.632812 15.046875 22.976562 17.683594 16 17.683594 C 9.023438 17.683594 3.367188 15.046875 3.367188 11.789062 C 3.367188 8.535156 9.023438 5.894531 16 5.894531 C 22.976562 5.894531 28.632812 8.535156 28.632812 11.789062 "/>
<path style=" stroke:none;fill-rule:nonzero;fill:rgb(85.098039%,61.960784%,50.980392%);fill-opacity:1;" d="M 17.683594 15.15625 C 17.460938 15.15625 17.246094 15.070312 17.089844 14.910156 C 15.121094 12.941406 15.089844 10.796875 16.984375 7.953125 C 17.605469 7.019531 17.742188 6.0625 17.386719 5.109375 C 16.996094 4.070312 16.175781 3.429688 15.929688 3.363281 C 15.460938 3.363281 15.121094 2.988281 15.121094 2.523438 C 15.121094 2.058594 15.535156 1.683594 16 1.683594 C 16.839844 1.683594 18.015625 2.65625 18.679688 3.894531 C 19.550781 5.523438 19.445312 7.296875 18.386719 8.886719 C 16.734375 11.367188 17.09375 12.535156 18.28125 13.71875 C 18.519531 13.960938 18.59375 14.324219 18.464844 14.636719 C 18.332031 14.953125 18.023438 15.160156 17.683594 15.15625 M 12.632812 13.472656 C 12.40625 13.472656 12.195312 13.386719 12.035156 13.226562 C 10.066406 11.257812 10.035156 9.113281 11.929688 6.269531 C 12.542969 5.351562 12.683594 4.515625 12.347656 3.789062 C 11.972656 2.980469 11.140625 2.550781 10.929688 2.527344 C 10.707031 2.523438 10.492188 2.4375 10.335938 2.277344 C 10.179688 2.121094 10.09375 1.90625 10.097656 1.683594 C 10.097656 1.21875 10.484375 0.84375 10.949219 0.84375 C 11.785156 0.84375 13.125 1.664062 13.777344 2.882812 C 14.183594 3.640625 14.664062 5.207031 13.332031 7.203125 C 11.679688 9.683594 12.042969 10.851562 13.226562 12.035156 C 13.46875 12.277344 13.542969 12.640625 13.410156 12.953125 C 13.28125 13.269531 12.972656 13.472656 12.632812 13.472656 "/>
</g>
</svg>
