<?xml version="1.0" encoding="UTF-8"?>
<svg xmlns="http://www.w3.org/2000/svg" xmlns:xlink="http://www.w3.org/1999/xlink" width="32px" height="32px" viewBox="0 0 32 32" version="1.1">
<g id="surface1">
<path style=" stroke:none;fill-rule:nonzero;fill:rgb(99.607843%,85.882353%,25.490196%);fill-opacity:1;" d="M 30.269531 16 C 30.273438 18.097656 29.8125 20.167969 28.921875 22.0625 C 27.6875 22.03125 26.703125 21.019531 26.703125 19.785156 L 26.703125 16.890625 C 26.703125 16.398438 26.300781 16 25.808594 16 C 25.316406 16 24.917969 16.398438 24.917969 16.890625 L 24.917969 18.320312 C 24.917969 18.8125 24.519531 19.210938 24.027344 19.210938 C 23.535156 19.210938 23.132812 18.8125 23.132812 18.320312 L 23.132812 16.140625 C 23.132812 14.992188 22.203125 14.0625 21.058594 14.0625 L 20.988281 14.0625 C 20.058594 11.664062 17.546875 10.265625 15.015625 10.738281 C 12.484375 11.214844 10.648438 13.425781 10.648438 16 L 10.648438 17.058594 C 10.648438 17.648438 10.167969 18.128906 9.578125 18.128906 C 8.988281 18.128906 8.507812 17.648438 8.507812 17.058594 L 8.507812 13.847656 C 8.507812 13.257812 8.03125 12.777344 7.4375 12.777344 C 6.847656 12.777344 6.367188 13.257812 6.367188 13.847656 L 6.367188 28.070312 C 6.367188 28.664062 5.890625 29.140625 5.296875 29.140625 C 4.707031 29.140625 4.226562 28.664062 4.226562 28.070312 L 4.226562 12.769531 C 4.226562 11.863281 3.492188 11.125 2.585938 11.125 C 4.578125 5.644531 9.832031 1.730469 16 1.730469 C 23.878906 1.730469 30.269531 8.121094 30.269531 16 Z M 30.269531 16 "/>
<path style=" stroke:none;fill-rule:nonzero;fill:rgb(96.078431%,72.54902%,33.333333%);fill-opacity:1;" d="M 26.703125 19.785156 C 26.703125 21.019531 27.6875 22.03125 28.921875 22.0625 C 26.992188 26.167969 23.230469 29.113281 18.78125 29.996094 C 14.335938 30.878906 9.730469 29.597656 6.382812 26.539062 L 6.367188 26.539062 L 6.367188 13.847656 C 6.367188 13.257812 6.847656 12.777344 7.4375 12.777344 C 8.03125 12.777344 8.507812 13.257812 8.507812 13.847656 L 8.507812 17.058594 C 8.507812 17.648438 8.988281 18.128906 9.578125 18.128906 C 10.167969 18.128906 10.648438 17.648438 10.648438 17.058594 L 10.648438 16 C 10.648438 18.148438 11.9375 20.089844 13.917969 20.925781 C 15.894531 21.761719 18.183594 21.335938 19.726562 19.839844 C 21.269531 18.339844 21.765625 16.066406 20.988281 14.0625 L 21.058594 14.0625 C 22.203125 14.0625 23.132812 14.992188 23.132812 16.140625 L 23.132812 18.320312 C 23.132812 18.8125 23.535156 19.210938 24.027344 19.210938 C 24.519531 19.210938 24.917969 18.8125 24.917969 18.320312 L 24.917969 16.890625 C 24.917969 16.398438 25.316406 16 25.808594 16 C 26.300781 16 26.703125 16.398438 26.703125 16.890625 Z M 26.703125 19.785156 "/>
<path style=" stroke:none;fill-rule:nonzero;fill:rgb(95.686275%,72.156863%,26.666667%);fill-opacity:1;" d="M 4.226562 12.769531 L 4.226562 24.066406 C 1.628906 20.269531 1.019531 15.453125 2.585938 11.125 C 3.492188 11.125 4.226562 11.863281 4.226562 12.769531 Z M 4.226562 12.769531 "/>
</g>
</svg>
