<?xml version="1.0" encoding="UTF-8"?>
<svg xmlns="http://www.w3.org/2000/svg" xmlns:xlink="http://www.w3.org/1999/xlink" width="32px" height="32px" viewBox="0 0 32 32" version="1.1">
<g id="surface1">
<path style="fill-rule:nonzero;fill:rgb(98.039216%,64.313725%,10.196078%);fill-opacity:1;stroke-width:1;stroke-linecap:round;stroke-linejoin:round;stroke:rgb(98.039216%,64.313725%,10.196078%);stroke-opacity:1;stroke-miterlimit:4;" d="M 17.289062 11.160156 C 11.722656 11.839844 11.707031 14.414062 12.382812 17.226562 L 15.257812 19.785156 C 20.164062 21.757812 21.441406 17.832031 22.414062 13.410156 Z M 17.289062 11.160156 "/>
<path style="fill-rule:nonzero;fill:rgb(98.039216%,64.313725%,10.196078%);fill-opacity:1;stroke-width:1;stroke-linecap:round;stroke-linejoin:round;stroke:rgb(21.960784%,21.568627%,27.843137%);stroke-opacity:1;stroke-miterlimit:4;" d="M 22.542969 13.675781 C 24.558594 13.714844 26.171875 16.046875 26.148438 18.886719 C 26.121094 21.636719 24.609375 23.871094 22.660156 23.964844 C 22.339844 23.964844 11.601562 23.976562 11.257812 23.980469 C 9.550781 24.023438 7.65625 24.0625 6.675781 22.972656 C 5.648438 21.832031 5.640625 19.171875 5.8125 17.53125 C 6.128906 14.5625 9.144531 11.933594 12.257812 11.097656 C 12.539062 11.023438 14.273438 10.480469 16.683594 10.992188 M 15.230469 19.621094 C 16.320312 20.453125 17.765625 20.65625 19.042969 20.152344 C 20.316406 19.652344 21.238281 18.523438 21.472656 17.171875 C 21.511719 16.957031 22.773438 8.851562 26.113281 9.296875 C 26.722656 9.378906 27.394531 9.523438 27.851562 9.113281 C 28.128906 8.863281 28.296875 8.515625 28.316406 8.144531 C 28.335938 7.773438 28.207031 7.410156 27.960938 7.132812 C 27.441406 6.554688 26.550781 6.507812 25.972656 7.027344 C 26.222656 6.777344 26.496094 6.328125 26.511719 5.976562 C 26.539062 5.199219 25.933594 4.546875 25.160156 4.519531 C 24.496094 4.496094 23.808594 4.914062 23.753906 5.546875 C 23.238281 11.199219 17.078125 10.433594 14.667969 11.628906 C 12.257812 12.820312 11.234375 14.757812 12.355469 17.023438 "/>
<path style="fill:none;stroke-width:1;stroke-linecap:round;stroke-linejoin:round;stroke:rgb(21.960784%,21.568627%,27.843137%);stroke-opacity:1;stroke-miterlimit:4;" d="M 3.683594 25.535156 L 28.242188 25.535156 C 28.226562 26.492188 28.042969 27.3125 27.035156 27.480469 L 5.175781 27.480469 C 3.691406 27.226562 3.925781 26.285156 3.683594 25.535156 Z M 3.683594 25.535156 "/>
<path style="fill:none;stroke-width:1;stroke-linecap:round;stroke-linejoin:round;stroke:rgb(100%,100%,100%);stroke-opacity:1;stroke-miterlimit:4;" d="M 13.847656 15.476562 C 13.839844 14.941406 14.046875 14.421875 14.425781 14.039062 C 14.804688 13.65625 15.320312 13.441406 15.855469 13.441406 "/>
</g>
</svg>
