<?xml version="1.0" encoding="UTF-8"?>
<svg xmlns="http://www.w3.org/2000/svg" xmlns:xlink="http://www.w3.org/1999/xlink" width="32px" height="32px" viewBox="0 0 32 32" version="1.1">
<g id="surface1">
<path style=" stroke:none;fill-rule:nonzero;fill:rgb(83.529412%,89.803922%,94.901961%);fill-opacity:1;" d="M 17 26.5 L 17 20.5 L 15 20.5 L 15 26.5 C 15 27.050781 14.550781 27.5 14 27.5 L 12.5 27.5 C 11.394531 27.5 10.5 28.394531 10.5 29.5 L 21.5 29.5 C 21.5 28.394531 20.605469 27.5 19.5 27.5 L 18 27.5 C 17.449219 27.5 17 27.050781 17 26.5 Z M 7.5 6.5 L 7.5 7.5 C 7.5 9.390625 8.824219 11.023438 10.671875 11.414062 C 11.144531 11.515625 11.5 11.910156 11.5 12.394531 L 11.5 15.613281 C 11.5 16.761719 12.207031 17.765625 13.265625 18.207031 C 13.722656 18.398438 14.019531 18.851562 14 19.355469 C 13.972656 19.996094 14.566406 20.5 15.210938 20.5 L 16.789062 20.5 C 17.433594 20.5 18.027344 19.996094 18 19.355469 C 17.980469 18.855469 18.273438 18.398438 18.734375 18.207031 C 19.792969 17.765625 20.5 16.757812 20.5 15.613281 L 20.5 12.394531 C 20.5 11.910156 20.855469 11.515625 21.328125 11.414062 C 23.175781 11.023438 24.5 9.390625 24.5 7.5 L 24.5 6.5 Z M 7.5 6.5 "/>
<path style=" stroke:none;fill-rule:nonzero;fill:rgb(56.862745%,79.215686%,37.647059%);fill-opacity:1;" d="M 8.035156 9.5 C 8.605469 10.484375 9.5625 11.179688 10.671875 11.414062 C 11.144531 11.515625 11.5 11.910156 11.5 12.394531 L 11.5 15.613281 C 11.5 16.761719 12.207031 17.765625 13.265625 18.207031 C 13.722656 18.398438 14.019531 18.851562 14 19.355469 C 13.972656 19.996094 14.566406 20.5 15.210938 20.5 L 16.789062 20.5 C 17.433594 20.5 18.027344 19.996094 18 19.355469 C 17.980469 18.855469 18.273438 18.398438 18.734375 18.207031 C 19.792969 17.765625 20.5 16.757812 20.5 15.613281 L 20.5 12.394531 C 20.5 11.910156 20.855469 11.515625 21.328125 11.414062 C 22.4375 11.175781 23.394531 10.480469 23.964844 9.5 Z M 8.035156 9.5 "/>
<path style=" stroke:none;fill-rule:nonzero;fill:rgb(76.470588%,91.764706%,61.568627%);fill-opacity:1;" d="M 4.699219 9.5 C 3.140625 7.890625 3.160156 5.328125 4.746094 3.746094 C 6.328125 2.160156 8.890625 2.140625 10.5 3.699219 Z M 4.699219 9.5 "/>
<path style=" stroke:none;fill-rule:nonzero;fill:rgb(0%,26.666667%,38.823529%);fill-opacity:1;" d="M 4.699219 10 C 4.566406 10 4.441406 9.949219 4.347656 9.855469 C 2.554688 8.054688 2.554688 5.144531 4.347656 3.347656 C 6.144531 1.554688 9.054688 1.554688 10.851562 3.347656 C 11.046875 3.542969 11.046875 3.859375 10.851562 4.054688 L 5.054688 9.855469 C 4.960938 9.949219 4.832031 10 4.699219 10 Z M 7.601562 3 C 6.640625 3 5.734375 3.375 5.054688 4.054688 C 4.378906 4.730469 3.996094 5.644531 4 6.601562 C 4 7.394531 4.253906 8.148438 4.726562 8.769531 L 9.769531 3.726562 C 9.144531 3.253906 8.382812 2.996094 7.601562 3 Z M 7.601562 3 "/>
<path style=" stroke:none;fill-rule:nonzero;fill:rgb(0%,26.666667%,38.823529%);fill-opacity:1;" d="M 4.699219 10 C 4.566406 10 4.441406 9.949219 4.347656 9.855469 C 2.554688 8.054688 2.554688 5.144531 4.347656 3.347656 C 6.144531 1.554688 9.054688 1.554688 10.851562 3.347656 C 11.042969 3.542969 11.039062 3.855469 10.847656 4.050781 C 10.652344 4.242188 10.34375 4.246094 10.144531 4.054688 C 8.785156 2.695312 6.414062 2.695312 5.054688 4.054688 C 4.375 4.734375 4 5.640625 4 6.601562 C 4 7.5625 4.375 8.464844 5.054688 9.148438 C 5.199219 9.289062 5.238281 9.503906 5.164062 9.691406 C 5.085938 9.878906 4.902344 10 4.699219 10 Z M 4.699219 10 "/>
<path style=" stroke:none;fill-rule:nonzero;fill:rgb(0%,26.666667%,38.823529%);fill-opacity:1;" d="M 7.628906 7.070312 C 7.351562 7.070312 7.128906 6.847656 7.128906 6.570312 L 7.128906 2.527344 C 7.128906 2.25 7.351562 2.027344 7.628906 2.027344 C 7.90625 2.027344 8.128906 2.25 8.128906 2.527344 L 8.128906 6.570312 C 8.128906 6.847656 7.90625 7.070312 7.628906 7.070312 Z M 7.628906 7.070312 "/>
<path style=" stroke:none;fill-rule:nonzero;fill:rgb(0%,26.666667%,38.823529%);fill-opacity:1;" d="M 7.601562 7.101562 C 7.46875 7.101562 7.339844 7.046875 7.246094 6.953125 L 4.375 4.082031 C 4.1875 3.886719 4.1875 3.574219 4.382812 3.382812 C 4.574219 3.1875 4.886719 3.1875 5.082031 3.375 L 7.953125 6.246094 C 8.097656 6.390625 8.140625 6.605469 8.0625 6.792969 C 7.984375 6.980469 7.804688 7.101562 7.601562 7.101562 Z M 7.601562 7.101562 "/>
<path style=" stroke:none;fill-rule:nonzero;fill:rgb(0%,26.666667%,38.823529%);fill-opacity:1;" d="M 7.574219 7.125 L 3.53125 7.125 C 3.253906 7.125 3.03125 6.902344 3.03125 6.625 C 3.03125 6.347656 3.253906 6.125 3.53125 6.125 L 7.574219 6.125 C 7.851562 6.125 8.074219 6.347656 8.074219 6.625 C 8.074219 6.902344 7.851562 7.125 7.574219 7.125 Z M 7.574219 7.125 "/>
<path style=" stroke:none;fill-rule:nonzero;fill:rgb(0%,26.666667%,38.823529%);fill-opacity:1;" d="M 16.789062 21 L 15.210938 21 C 14.730469 21 14.269531 20.804688 13.9375 20.460938 C 13.644531 20.160156 13.484375 19.753906 13.5 19.335938 C 13.511719 19.046875 13.339844 18.78125 13.074219 18.667969 C 11.8125 18.144531 11 16.945312 11 15.613281 L 11 12.394531 C 11 12.160156 10.820312 11.957031 10.566406 11.902344 C 8.492188 11.457031 7.007812 9.625 7 7.5 L 7 6.5 C 7 6.222656 7.222656 6 7.5 6 L 24.5 6 C 24.777344 6 25 6.222656 25 6.5 L 25 7.5 C 25 9.613281 23.5 11.46875 21.433594 11.902344 C 21.179688 11.957031 21 12.160156 21 12.394531 L 21 15.617188 C 21 16.949219 20.1875 18.144531 18.925781 18.667969 C 18.660156 18.78125 18.488281 19.046875 18.5 19.335938 C 18.515625 19.75 18.359375 20.148438 18.0625 20.460938 C 17.726562 20.804688 17.269531 21 16.789062 21 Z M 8 7 L 8 7.5 C 8.003906 9.152344 9.160156 10.578125 10.773438 10.925781 C 11.496094 11.078125 12 11.683594 12 12.394531 L 12 15.617188 C 12 16.542969 12.570312 17.378906 13.457031 17.746094 C 14.105469 18.015625 14.527344 18.671875 14.5 19.375 C 14.496094 19.523438 14.554688 19.664062 14.65625 19.769531 C 14.804688 19.914062 15.003906 20 15.210938 20 L 16.789062 20 C 16.996094 20 17.195312 19.914062 17.34375 19.769531 C 17.445312 19.664062 17.503906 19.523438 17.5 19.375 C 17.476562 18.667969 17.890625 18.019531 18.542969 17.742188 C 19.429688 17.378906 20 16.539062 20 15.613281 L 20 12.394531 C 20 11.683594 20.503906 11.078125 21.226562 10.925781 C 22.839844 10.578125 23.996094 9.152344 24 7.5 L 24 7 Z M 8 7 "/>
<path style=" stroke:none;fill-rule:nonzero;fill:rgb(0%,26.666667%,38.823529%);fill-opacity:1;" d="M 21.5 30 L 10.5 30 C 10.222656 30 10 29.777344 10 29.5 C 10 28.121094 11.121094 27 12.5 27 L 14 27 C 14.273438 27 14.5 26.773438 14.5 26.5 L 14.5 20.5 C 14.5 20.222656 14.722656 20 15 20 L 17 20 C 17.277344 20 17.5 20.222656 17.5 20.5 L 17.5 26.5 C 17.5 26.773438 17.726562 27 18 27 L 19.5 27 C 20.878906 27 22 28.121094 22 29.5 C 22 29.777344 21.777344 30 21.5 30 Z M 11.085938 29 L 20.914062 29 C 20.707031 28.417969 20.152344 28 19.5 28 L 18 28 C 17.171875 28 16.5 27.328125 16.5 26.5 L 16.5 21 L 15.5 21 L 15.5 26.5 C 15.5 27.328125 14.828125 28 14 28 L 12.5 28 C 11.847656 28 11.292969 28.417969 11.085938 29 Z M 23.75 10 L 8.25 10 C 7.972656 10 7.75 9.777344 7.75 9.5 C 7.75 9.222656 7.972656 9 8.25 9 L 23.75 9 C 24.027344 9 24.25 9.222656 24.25 9.5 C 24.25 9.777344 24.027344 10 23.75 10 Z M 23.75 10 "/>
<path style=" stroke:none;fill-rule:nonzero;fill:rgb(0%,26.666667%,38.823529%);fill-opacity:1;" d="M 17.5 16.5 C 17.5 16.777344 17.277344 17 17 17 C 16.722656 17 16.5 16.777344 16.5 16.5 C 16.5 16.222656 16.722656 16 17 16 C 17.277344 16 17.5 16.222656 17.5 16.5 Z M 17.5 16.5 "/>
<path style=" stroke:none;fill-rule:nonzero;fill:rgb(0%,26.666667%,38.823529%);fill-opacity:1;" d="M 17 14.5 C 17 14.777344 16.777344 15 16.5 15 C 16.222656 15 16 14.777344 16 14.5 C 16 14.222656 16.222656 14 16.5 14 C 16.777344 14 17 14.222656 17 14.5 Z M 17 14.5 "/>
<path style=" stroke:none;fill-rule:nonzero;fill:rgb(0%,26.666667%,38.823529%);fill-opacity:1;" d="M 14 14.5 C 14 14.777344 13.777344 15 13.5 15 C 13.222656 15 13 14.777344 13 14.5 C 13 14.222656 13.222656 14 13.5 14 C 13.777344 14 14 14.222656 14 14.5 Z M 14 14.5 "/>
<path style=" stroke:none;fill-rule:nonzero;fill:rgb(0%,26.666667%,38.823529%);fill-opacity:1;" d="M 15 16.5 C 15 16.777344 14.777344 17 14.5 17 C 14.222656 17 14 16.777344 14 16.5 C 14 16.222656 14.222656 16 14.5 16 C 14.777344 16 15 16.222656 15 16.5 Z M 15 16.5 "/>
<path style=" stroke:none;fill-rule:nonzero;fill:rgb(0%,26.666667%,38.823529%);fill-opacity:1;" d="M 15.5 12.5 C 15.5 12.777344 15.277344 13 15 13 C 14.722656 13 14.5 12.777344 14.5 12.5 C 14.5 12.222656 14.722656 12 15 12 C 15.277344 12 15.5 12.222656 15.5 12.5 Z M 15.5 12.5 "/>
<path style=" stroke:none;fill-rule:nonzero;fill:rgb(0%,26.666667%,38.823529%);fill-opacity:1;" d="M 18.5 12.5 C 18.5 12.777344 18.277344 13 18 13 C 17.722656 13 17.5 12.777344 17.5 12.5 C 17.5 12.222656 17.722656 12 18 12 C 18.277344 12 18.5 12.222656 18.5 12.5 Z M 18.5 12.5 "/>
<path style=" stroke:none;fill-rule:nonzero;fill:rgb(0%,26.666667%,38.823529%);fill-opacity:1;" d="M 19.5 14.5 C 19.5 14.777344 19.277344 15 19 15 C 18.722656 15 18.5 14.777344 18.5 14.5 C 18.5 14.222656 18.722656 14 19 14 C 19.277344 14 19.5 14.222656 19.5 14.5 Z M 19.5 14.5 "/>
<path style=" stroke:none;fill-rule:nonzero;fill:rgb(0%,26.666667%,38.823529%);fill-opacity:1;" d="M 16.5 18.5 C 16.5 18.777344 16.277344 19 16 19 C 15.722656 19 15.5 18.777344 15.5 18.5 C 15.5 18.222656 15.722656 18 16 18 C 16.277344 18 16.5 18.222656 16.5 18.5 Z M 16.5 18.5 "/>
<path style=" stroke:none;fill-rule:nonzero;fill:rgb(0%,26.666667%,38.823529%);fill-opacity:1;" d="M 19.339844 10 C 19.171875 10 19.011719 9.914062 18.921875 9.769531 C 18.828125 9.628906 18.816406 9.449219 18.882812 9.292969 L 21.671875 3.117188 C 21.988281 2.414062 22.789062 2.066406 23.519531 2.316406 L 25.625 3.027344 C 25.886719 3.113281 26.027344 3.398438 25.9375 3.660156 C 25.851562 3.921875 25.566406 4.0625 25.304688 3.972656 L 23.199219 3.261719 C 22.953125 3.179688 22.6875 3.296875 22.582031 3.53125 L 19.796875 9.707031 C 19.714844 9.886719 19.535156 10 19.339844 10 Z M 19.339844 10 "/>
</g>
</svg>
